<svg id="Layer_1" data-name="Layer 1" xmlns="http://www.w3.org/2000/svg" width="64" height="64" viewBox="0 0 64 64"><defs><style>.cls-1{fill:#666;}</style></defs><title>layers</title><path id="layers" class="cls-1" d="M37,60H9a1,1,0,0,1-1-1V23a1,1,0,0,1,1-1H37a1,1,0,0,1,1,1V59A1,1,0,0,1,37,60ZM10,58H36V24H10V58Zm35-6H41a1,1,0,0,1,0-2h3V16H18v3a1,1,0,0,1-2,0V15a1,1,0,0,1,1-1H45a1,1,0,0,1,1,1V51A1,1,0,0,1,45,52Zm8-8H49a1,1,0,0,1,0-2h3V8H26v3a1,1,0,1,1-2,0V7a1,1,0,0,1,1-1H53a1,1,0,0,1,1,1V43A1,1,0,0,1,53,44Z"/></svg>